<?xml version="1.0" standalone="no"?>
<!DOCTYPE svg PUBLIC "-//W3C//DTD SVG 20010904//EN"
 "http://www.w3.org/TR/2001/REC-SVG-20010904/DTD/svg10.dtd">
<svg version="1.0" xmlns="http://www.w3.org/2000/svg"
 width="500.000000pt" height="500.000000pt" viewBox="0 0 500.000000 500.000000"
 preserveAspectRatio="xMidYMid meet">
<metadata>
Created by potrace 1.16, written by Peter Selinger 2001-2019
</metadata>
<g transform="translate(0.000000,500.000000) scale(0.100000,-0.100000)"
fill="#000000" stroke="none">
<path d="M2474 3531 c-113 -28 -192 -155 -164 -262 18 -65 63 -124 116 -149
75 -37 177 -26 239 24 19 16 19 16 -10 9 -16 -5 -54 -8 -83 -7 -42 0 -59 6
-90 31 -53 43 -76 88 -76 148 0 93 69 171 163 182 32 4 48 9 40 14 -23 12
-102 18 -135 10z"/>
<path d="M1590 2838 c0 -5 12 -25 26 -43 l26 -34 -4 -248 c-2 -208 -6 -253
-20 -280 l-16 -33 38 0 39 0 -15 35 c-11 28 -14 82 -12 273 l3 238 215 -273
c213 -270 215 -273 253 -273 20 0 37 3 37 6 0 3 -13 23 -30 44 l-30 38 0 241
c0 188 3 249 14 276 8 19 13 36 10 36 -2 1 -13 1 -24 1 -11 0 -24 0 -29 -1 -4
0 -2 -25 6 -53 10 -39 13 -111 11 -267 l-3 -215 -208 265 c-200 253 -210 264
-248 270 -21 3 -39 1 -39 -3z"/>
<path d="M2230 2840 c0 -5 4 -10 9 -10 17 0 79 -94 165 -253 l86 -158 0 -90
c0 -50 -5 -99 -10 -110 -10 -18 -7 -19 45 -19 53 0 55 1 45 21 -18 32 -8 216
14 264 10 22 15 37 10 32 -4 -4 -15 -23 -23 -43 l-16 -37 -93 172 c-52 95 -96
188 -99 207 l-6 34 -63 0 c-36 0 -64 -4 -64 -10z"/>
<path d="M2921 2840 c-39 -4 -42 -7 -28 -19 20 -16 346 -490 371 -538 9 -18
16 -43 16 -58 0 -24 2 -25 71 -25 l71 0 -34 38 c-39 43 -228 316 -228 329 1
18 167 229 198 249 34 24 33 30 -8 29 -17 0 -26 -6 -28 -20 -2 -11 -35 -63
-73 -115 -91 -125 -98 -134 -103 -129 -33 33 -128 192 -133 221 -3 21 -8 38
-12 39 -3 0 -13 1 -21 3 -8 1 -35 -1 -59 -4z"/>
</g>
</svg>
